<svg height="511pt" viewBox="-81 0 511 511.99977" width="511pt" xmlns="http://www.w3.org/2000/svg"><path d="m318.925781 260.484375-116.34375 227.289063c-2.878906 5.660156-7.105469 9.886718-11.992187 12.652343-14.183594 8.0625-33.941406 3.914063-42.429688-12.652343l-116.332031-227.289063c-65.835937-109.917969 12.847656-252.832031 143.542969-252.832031 5.152344 0 10.21875.222656 15.199218.660156 121.289063 10.542969 191.738282 146.339844 128.355469 252.171875zm0 0" fill="#4172cc"/><path d="m318.925781 260.484375-116.34375 227.289063c-2.878906 5.660156-7.105469 9.886718-11.992187 12.652343-4.878906-2.757812-9.105469-6.972656-12.015625-12.652343l-116.332031-227.289063c-63.238282-105.578125 6.863281-241.609375 128.328124-252.171875 121.289063 10.542969 191.738282 146.339844 128.355469 252.171875zm0 0" fill="#6990d7"/><path d="m309.984375 175.226562c0 74.332032-60.257813 134.589844-134.59375 134.589844-74.332031 0-134.589844-60.257812-134.589844-134.589844 0-74.335937 60.257813-134.59375 134.589844-134.59375 74.335937 0 134.59375 60.257813 134.59375 134.59375zm0 0" fill="#ffe1aa"/><path d="m241.125 240.957031c-13.542969 13.542969-30.21875 22.039063-47.699219 25.476563-29.378906 5.777344-61.007812-2.714844-83.769531-25.476563-36.300781-36.304687-36.300781-95.164062 0-131.46875 22.761719-22.757812 54.390625-31.253906 83.769531-25.464843 17.480469 3.425781 34.15625 11.921874 47.699219 25.464843 36.304688 36.304688 36.304688 95.164063 0 131.46875zm0 0" fill="#f29500"/><path d="m241.125 240.957031c-13.542969 13.542969-30.21875 22.039063-47.699219 25.476563-17.476562-3.4375-34.152343-11.933594-47.695312-25.476563-36.304688-36.304687-36.304688-95.164062 0-131.46875 13.542969-13.542969 30.21875-22.039062 47.695312-25.464843 17.480469 3.425781 34.15625 11.921874 47.699219 25.464843 36.304688 36.304688 36.304688 95.164063 0 131.46875zm0 0" fill="#ffb52d"/><path d="m172.648438 317.410156c111.6875 2.253906 182.921874-120.648437 123.871093-216.671875-56.976562-92.660156-193.574219-89.476562-245.855469 6.15625-44.597656 81.574219-.273437 183.640625 90.214844 206.277344 4.070313 1.015625 8.203125-1.460937 9.222656-5.53125 1.015626-4.074219-1.460937-8.203125-5.53125-9.222656-57.773437-14.453125-96.1875-66.238281-96.1875-123.066407 0-44.523437 22.613282-85.007812 60.488282-108.300781 85.160156-52.367187 193.53125 9.726563 193.53125 108.042969 0 73.414062-60.515625 128.511719-129.449219 127.113281-4.15625-.089843-7.667969 3.25-7.753906 7.449219-.082031 4.199219 3.25 7.671875 7.449219 7.753906zm0 0"/><path d="m301.371094 53.710938c-76.738282-80.726563-213.453125-70.066407-274.535156 29.355468-2.199219 3.578125-1.078126 8.261719 2.5 10.457032 3.574218 2.199218 8.257812 1.082031 10.457031-2.496094 29.148437-47.445313 79.832031-75.769532 135.582031-75.769532 123.835938 0 200.070312 135.921876 136.890625 241.539063l-116.457031 227.53125c-8.449219 16.621094-32.300782 16.730469-40.875-.019531-.96875-1.890625-116.203125-227.046875-116.582032-227.730469-25.242187-42.144531-29.820312-92.835937-11.503906-139.574219 1.53125-3.90625-.394531-8.320312-4.304687-9.851562-3.910157-1.53125-8.320313.394531-9.851563 4.304687-20.277344 51.730469-14.683594 107.210938 12.484375 152.714844l116.21875 227.066406c14.21875 27.773438 53.929688 27.59375 67.960938 0l116.21875-227.066406c41.609375-69.695313 28.589843-154.925781-24.203125-210.460937zm0 0"/><path d="m245.03125 113.179688c2.898438-3.039063 2.785156-7.851563-.253906-10.75-64.226563-61.273438-169.949219-14.835938-169.949219 72.796874 0 88.703126 108.050781 134.730469 171.675781 71.109376 32.417969-32.421876 37.546875-80.46875 18.003906-117.769532-1.949218-3.71875-6.550781-5.152344-10.265624-3.207031-3.71875 1.949219-5.152344 6.546875-3.203126 10.265625 16.574219 31.632812 12.234376 72.433594-15.289062 99.957031-53.96875 53.964844-145.714844 14.980469-145.714844-60.359375 0-74.394531 89.75-113.777344 144.25-61.789062 3.035156 2.898437 7.847656 2.785156 10.746094-.253906zm0 0"/><path d="m175.390625 237.914062c5.003906 0 9.058594-4.054687 9.058594-9.058593v-7.8125h.039062c.675781-.5 19.386719-3.957031 19.386719-27.238281 0-22.832032-18.757812-26.964844-20.535156-28.300782-8.367188-3.097656-16.617188-4.714844-16.617188-11.765625 0-12.058593 15.828125-7.15625 27.085938-3.53125 7.535156-.464843 17.277344-16.246093-9.355469-20.847656v-7.585937c0-5.003907-4.058594-9.058594-9.058594-9.058594-5.003906 0-9.058593 4.054687-9.058593 9.058594v8.816406c-.125.09375-17.410157 3.488281-17.410157 23.824218 0 17.578126 12.535157 22.289063 22.609375 26.074219 10.085938 3.789063 14.542969 5.808594 14.542969 13.984375 0 10.425782-7.632813 9.410156-12.253906 10.21875-11.886719-.375-11.246094-9.207031-18.605469-9.207031-4.601562 0-8.308594 5.082031-8.308594 9.285156 0 11.902344 19.234375 16.398438 19.355469 16.460938h.070313v7.625c-.003907 5.003906 4.054687 9.058593 9.054687 9.058593zm0 0"/></svg>