<svg height="512" viewBox="0 0 64 64" width="512" xmlns="http://www.w3.org/2000/svg"><g id="Global_pin" data-name="Global pin"><circle cx="32" cy="32" fill="#57a4ff" r="29"/><circle cx="32" cy="32" fill="#57a4ff" r="29"/><path d="m48.968 8.489a64.138 64.138 0 0 1 -40.091 41.011 29 29 0 1 0 40.091-41.011z" fill="#2488ff"/><path d="m33.048 30.367-.612 1.683a6 6 0 0 1 -5.636 3.95h-2.8a2.013 2.013 0 0 0 -1.6.8l-2 2.67a1.969 1.969 0 0 0 -.4 1.2v7.92a1 1 0 0 1 -1.7.706l-1.66-1.656a3.01 3.01 0 0 1 -.821-1.533l-.5-2.5a2 2 0 0 0 -1.959-1.607h-8.59a29.033 29.033 0 0 1 20.23-38.15v6.15a1.982 1.982 0 0 1 -1.976 2 2.015 2.015 0 0 0 -2.024 2v5a2.006 2.006 0 0 1 -2 2h-3.884a2.085 2.085 0 0 0 -2.04 1.5 2 2 0 0 0 1.924 2.5h14.289a4 4 0 0 1 3.759 5.367z" fill="#5eac24"/><path d="m55.26 49.33a28.952 28.952 0 0 1 -23.26 11.67 29.833 29.833 0 0 1 -3-.15v-3.85l-1.29-2.58a1.982 1.982 0 0 1 .51-2.43l4.5-3.76a1 1 0 0 1 .64-.23h3.95a2.006 2.006 0 0 0 1.97-1.67l.44-2.66a2.006 2.006 0 0 1 1.97-1.67h5.31a2.006 2.006 0 0 1 2 2v1a2.006 2.006 0 0 0 2 2h.36a2 2 0 0 1 1.16.37z" fill="#5eac24"/><path d="m61 32c0 .49-.01.98-.04 1.47l-3.56-2.67a6 6 0 0 1 -2.4-4.8v-2.53c0-1.51-.86-1.9-2.21-2.58l-1.79-.89a2.006 2.006 0 0 0 -2 2v2.39a1.608 1.608 0 0 1 -3.2.23l-.68-4.76a1 1 0 0 0 -.99-.86h-.13a2.006 2.006 0 0 1 -2-2v-1a2.006 2.006 0 0 0 -2-2h-2a2.006 2.006 0 0 1 -2-2v-8.72a28.987 28.987 0 0 1 25 28.72z" fill="#91dc5a"/><path d="m36 45a7.467 7.467 0 0 1 -.99 3 43.958 43.958 0 0 1 -4.01 6s-.92-1.15-1.97-2.68c-1.4-2.04-3.03-4.75-3.03-6.32a5 5 0 0 1 10 0z" fill="#ffcd00"/><path d="m50 35c0 1.76-2.03 4.93-3.5 7-.84 1.18-1.5 2-1.5 2s-.66-.82-1.5-2c-1.47-2.07-3.5-5.24-3.5-7a5 5 0 0 1 10 0z" fill="#d80027"/><path d="m16 8c0 2.76-5 9-5 9s-.93-1.16-1.98-2.69c-1.4-2.04-3.02-4.74-3.02-6.31a5 5 0 0 1 9.99-.18 1.087 1.087 0 0 1 .01.18z" fill="#ffcd00"/><path d="m19 29c0 2.76-5 9-5 9s-5-6.24-5-9a4.985 4.985 0 0 1 4.3-4.94 4.049 4.049 0 0 1 .7-.06 4.941 4.941 0 0 1 3 1 5.01 5.01 0 0 1 2 4z" fill="#ff9811"/><path d="m35 20c0 1.57-1.63 4.28-3.03 6.32-1.05 1.53-1.97 2.68-1.97 2.68s-1.49-1.86-2.85-4c-1.12-1.78-2.15-3.75-2.15-5a5 5 0 0 1 10 0z" fill="#ed1c24"/><g fill="#d1e7f8"><circle cx="30" cy="20" r="2"/><circle cx="14" cy="29" r="2"/><circle cx="31" cy="45" r="2"/><circle cx="45" cy="35" r="2"/><circle cx="11" cy="8" r="2"/></g><path d="m15.959 46.58a3 3 0 0 0 .681 1.06l1.66 1.66a1 1 0 0 0 1.7-.71v-4.173c-1.32.764-2.663 1.493-4.041 2.163z" fill="#4e901e"/><path d="m48.97 8.483a63.644 63.644 0 0 1 -4.47 10.59 1 1 0 0 1 .622.787l.68 4.76a1.608 1.608 0 0 0 3.2-.23v-2.39a2.006 2.006 0 0 1 2-2l1.79.89c1.35.68 2.21 1.07 2.21 2.58v2.53a6 6 0 0 0 2.4 4.8l3.56 2.67c.03-.49.04-.98.04-1.47a28.953 28.953 0 0 0 -12.032-23.517z" fill="#7ed63e"/><path d="m57 8c0 1.4-1.29 3.7-2.56 5.63-1.23 1.86-2.44 3.37-2.44 3.37s-5-6.24-5-9a4.146 4.146 0 0 1 .07-.79 5 5 0 0 1 9.93.79z" fill="#ff9811"/><circle cx="52" cy="8" fill="#d1e7f8" r="2"/></g></svg>