<svg height="512" viewBox="0 0 64 64" width="512" xmlns="http://www.w3.org/2000/svg"><g id="Two_Tone" data-name="Two Tone"><path d="m53 24.267c0 18.366-21 36.733-21 36.733s-21-18.367-21-36.733a21 21 0 1 1 42 0z" fill="#90caf9"/><circle cx="32" cy="24" fill="#ffc108" r="17"/><path d="m32 2a22.159 22.159 0 0 0 -22 22.267c0 7.84 3.6 16.542 10.7 25.86a86.428 86.428 0 0 0 10.642 11.626 1 1 0 0 0 1.316 0 86.428 86.428 0 0 0 10.642-11.626c7.1-9.318 10.7-18.02 10.7-25.86a22.159 22.159 0 0 0 -22-22.267zm0 57.646c-3.527-3.289-20-19.5-20-35.379a20 20 0 1 1 40 0c0 15.88-16.473 32.09-20 35.379z" fill="#0d47a0"/><path d="m32 6a18 18 0 1 0 18 18 18.021 18.021 0 0 0 -18-18zm0 34a16 16 0 1 1 16-16 16.019 16.019 0 0 1 -16 16z" fill="#0d47a0"/><path d="m20 24h24v4h-24z" fill="#1a76d2"/><path d="m21 17h22v7h-22z" fill="#1a76d2"/><path d="m24.879 19.879h4.243v4.243h-4.243z" fill="#90caf9" transform="matrix(.707 -.707 .707 .707 -7.648 25.536)"/><path d="m34.879 19.879h4.243v4.243h-4.243z" fill="#90caf9" transform="matrix(.707 -.707 .707 .707 -4.719 32.607)"/><path d="m44 23v-6a1 1 0 0 0 -1-1h-22a1 1 0 0 0 -1 1v6a1 1 0 0 0 -1 1v4a1 1 0 0 0 1 1v3h2v-3h20v3h2v-3a1 1 0 0 0 1-1v-4a1 1 0 0 0 -1-1zm-23 2h22v2h-22zm4.414-3 1.586-1.586 1.586 1.586-1 1h-1.172zm10 0 1.586-1.586 1.586 1.586-1 1h-1.172zm-13.414-4h20v5h-1.586l.293-.293a1 1 0 0 0 0-1.414l-3-3a1 1 0 0 0 -1.414 0l-3 3a1 1 0 0 0 0 1.414l.293.293h-3.172l.293-.293a1 1 0 0 0 0-1.414l-3-3a1 1 0 0 0 -1.414 0l-3 3a1 1 0 0 0 0 1.414l.293.293h-1.586z" fill="#0d47a0"/></g></svg>