<svg height="512" viewBox="0 0 38 59" width="512" xmlns="http://www.w3.org/2000/svg"><g id="Page-1" fill="none" fill-rule="evenodd"><g id="053---Mountain-Location" fill-rule="nonzero"><path id="Shape" d="m30.15 34.38-10.24 23.03c-.1624531.356559-.5181769.5853918-.91.5853918s-.7475469-.2288328-.91-.5853918l-10.24-23.03z" fill="#c03a2b"/><circle id="Oval" cx="19" cy="19" fill="#e64c3c" r="19"/><path id="Shape" d="m33.75 21.71c-1.3076394 7.118754-7.5121428 12.2884724-14.75 12.29-2.1400096.0039728-4.2553791-.4566319-6.2-1.35l6.3-7.63 5.49-6.64 2.43 2.43c.3930079.3899779 1.0269921.3899779 1.42 0l2.48-2.49z" fill="#7f8c8d"/><path id="Shape" d="m19.1 25.02-6.3 7.63c-4.45823232-2.0200545-7.64988508-6.0889452-8.55-10.9l2.85-3.41 2.47 2.47c.39300794.3899779 1.0269921.3899779 1.42 0l2.47-2.48z" fill="#95a5a5"/><path id="Shape" d="m34 19c.0034383.9092459-.0802778 1.8167284-.25 2.71l-2.83-3.39-2.84-3.42c-.0775146-.0905878-.1907747-.1427379-.31-.1427379s-.2324854.0521501-.31.1427379l-2.08 2.52-3.24-3.89-2.82-3.38c-.0790344-.0951463-.1963099-.15018804-.32-.15018804s-.2409656.05504174-.32.15018804l-2.82 3.39-3.2 3.84-2.08-2.48c-.0775146-.0905878-.1907747-.1427379-.31-.1427379s-.2324854.0521501-.31.1427379l-2.86 3.44-2.85 3.41c-.16477195-.907432-.24843549-1.8277309-.25-2.75 0-8.2842712 6.7157288-15 15-15s15 6.7157288 15 15z" fill="#f3d55b"/><path id="Shape" d="m26 59h-14c-.5522847 0-1-.4477153-1-1s.4477153-1 1-1h14c.5522847 0 1 .4477153 1 1s-.4477153 1-1 1z" fill="#bdc3c7"/><path id="Shape" d="m13.46 18.33-2.47 2.48c-.3930079.3899779-1.02699206.3899779-1.42 0l-2.47-2.47 2.86-3.44c.0775146-.0905878.1907747-.1427379.31-.1427379s.2324854.0521501.31.1427379l2.08 2.48.05.05z" fill="#ecf0f1"/><path id="Shape" d="m30.92 18.32-2.48 2.49c-.3930079.3899779-1.0269921.3899779-1.42 0l-2.43-2.43.79-.95v-.01l2.08-2.52c.0775146-.0905878.1907747-.1427379.31-.1427379s.2324854.0521501.31.1427379z" fill="#ecf0f1"/><path id="Shape" d="m25.38 17.42v.01l-.79.95-5.49 6.64-5.64-6.69-.75-.9-.05-.05 3.2-3.84 2.58 2.58c.3129852.3001998.8070148.3001998 1.12 0l2.57-2.58.01-.01z" fill="#bdc3c7"/><path id="Shape" d="m22.14 13.53-.01.01-2.57 2.58c-.3129852.3001998-.8070148.3001998-1.12 0l-2.58-2.58 2.82-3.39c.0790344-.0951463.1963099-.15018804.32-.15018804s.2409656.05504174.32.15018804z" fill="#fff"/><path id="Shape" d="m30.93 18.31-.01.01" fill="#7f8c8d"/><path id="Shape" d="m19 35c-8.836556 0-16-7.163444-16-16s7.163444-16 16-16 16 7.163444 16 16c-.0104696 8.8322157-7.1677843 15.9895304-16 16zm0-30c-7.7319865 0-14 6.2680135-14 14s6.2680135 14 14 14 14-6.2680135 14-14c-.0082673-7.7285595-6.2714405-13.99173268-14-14z" fill="#fff"/></g></g></svg>