<svg height="511pt" viewBox="-61 0 511 511.99955" width="511pt" xmlns="http://www.w3.org/2000/svg"><path d="m390.027344 194.761719c0 68.550781-35.421875 128.828125-88.953125 163.53125-8.066407 5.234375-14.800781 12.265625-19.539063 20.625l-69.945312 123.5625c-.15625.273437-.316406.535156-.496094.800781-7.472656 11.882812-25.128906 11.621094-32.160156-.800781l-69.945313-123.5625c-4.726562-8.351563-11.449219-15.378907-19.503906-20.59375-54.300781-35.1875-89.976563-96.679688-88.964844-166.433594 1.511719-104.859375 87.109375-190.414063 191.96875-191.8710938 6.277344-.0859374 12.496094.1249998 18.628907.6210938 100.152343 8.054687 178.910156 91.886719 178.910156 194.121094zm0 0" fill="#d63030"/><path d="m390.027344 194.761719c0 68.550781-35.421875 128.828125-88.953125 163.53125-8.066407 5.234375-14.800781 12.265625-19.539063 20.625l-69.945312 123.5625c-.15625.273437-.316406.535156-.496094.800781-.179688-.265625-.335938-.527344-.496094-.800781l-69.945312-123.5625c-4.726563-8.351563-11.449219-15.378907-19.503906-20.59375-54.300782-35.1875-89.976563-96.679688-88.964844-166.433594 1.445312-100.480469 80.097656-183.226563 178.933594-191.25 100.152343 8.054687 178.910156 91.886719 178.910156 194.121094zm0 0" fill="#fb5858"/><path d="m339.070312 194.527344c0 79.441406-64.414062 143.808594-143.808593 143.808594-79.421875 0-143.804688-64.382813-143.804688-143.808594 0-85.367188 74.105469-152.316406 159.636719-142.929688 71.972656 7.886719 127.976562 68.871094 127.976562 142.929688zm0 0" fill="#c2eaf2"/><path d="m339.070312 194.527344c0 74.074218-56.003906 135.058594-127.976562 142.941406-71.96875-7.882812-127.972656-68.867188-127.972656-142.941406 0-74.058594 56.003906-135.042969 127.972656-142.929688 71.972656 7.886719 127.976562 68.871094 127.976562 142.929688zm0 0" fill="#def4f8"/><path d="m179.910156 278.453125h.027344c1.324219.003906 2.414062-1.082031 2.414062-2.410156v-98.230469h25.824219v98.230469c0 1.328125 1.085938 2.414062 2.414063 2.410156h.023437c11.070313 0 19.953125 9.355469 19.175781 20.589844-.652343 9.472656-8.316406 17.148437-17.785156 17.8125-5.46875.386719-10.496094-1.519531-14.214844-4.855469-1.441406-1.289062-3.613281-1.289062-5.054687 0-3.71875 3.335938-8.746094 5.242188-14.214844 4.855469-9.46875-.664063-17.132812-8.339844-17.785156-17.8125-.777344-11.234375 8.109375-20.589844 19.175781-20.589844zm0 0" fill="#ffd993"/><path d="m260.3125 158.15625-34.957031 74.148438c-2.082031 4.421874-4.953125 8.039062-8.316407 10.847656-14.378906 12.042968-37.789062 9.289062-47.730468-9.582032l-38.089844-72.332031c-15.167969-45.003906 17.425781-92.339843 64.785156-91.644531 6.59375.09375 12.960938 1.160156 18.964844 3.050781 33.742188 10.585938 56.222656 47.222657 45.34375 85.511719zm0 0" fill="#f29500"/><path d="m260.3125 158.15625-34.957031 74.148438c-2.082031 4.421874-4.953125 8.039062-8.316407 10.847656-2.976562-2.523438-5.585937-5.710938-7.621093-9.582032l-38.09375-72.332031c-12.78125-37.921875 8.351562-77.492187 43.644531-88.59375 33.742188 10.585938 56.222656 47.222657 45.34375 85.511719zm0 0" fill="#ffa90b"/></svg>