<svg height="464pt" viewBox="-56 0 464 464" width="464pt" xmlns="http://www.w3.org/2000/svg"><path d="m352 424c0-22.089844-78.796875-40-176-40s-176 17.910156-176 40 78.796875 40 176 40 176-17.910156 176-40zm0 0" fill="#adabac"/><path d="m160 264h32v152c0 8.835938-7.164062 16-16 16s-16-7.164062-16-16zm0 0" fill="#494342"/><path d="m312 136c0 75.109375-60.890625 136-136 136s-136-60.890625-136-136 60.890625-136 136-136 136 60.890625 136 136zm0 0" fill="#ee3446"/><path d="m144 208c-4.246094.007812-8.316406-1.679688-11.3125-4.6875l-48-48 22.625-22.625 36.6875 36.679688 100.6875-100.679688 22.625 22.625-112 112c-2.996094 3.007812-7.066406 4.695312-11.3125 4.6875zm0 0" fill="#ad2943"/></svg>